<?xml version="1.0" encoding="utf-8"?>
<!-- Svg Vector Icons : http://www.onlinewebfonts.com/icon -->
<!DOCTYPE svg PUBLIC "-//W3C//DTD SVG 1.1//EN" "http://www.w3.org/Graphics/SVG/1.1/DTD/svg11.dtd">
<svg version="1.1" xmlns="http://www.w3.org/2000/svg" xmlns:xlink="http://www.w3.org/1999/xlink" x="0px" y="0px" viewBox="0 0 256 256" enable-background="new 0 0 256 256" xml:space="preserve">
<metadata> Svg Vector Icons : http://www.onlinewebfonts.com/icon </metadata>
<g><g><g><g><path fill="#000000" d="M236.4,118.4H211c-4.7-37.9-35.1-68.1-73.4-72.6V19.6c0-5.3-4.3-9.6-9.6-9.6s-9.6,4.3-9.6,9.6v26.1c-38.6,4.2-69.3,34.5-74,72.7H19.6c-5.3,0-9.6,4.3-9.6,9.6s4.3,9.6,9.6,9.6h24.6c4.3,38.6,35.2,69.4,74.1,73.7v25c0,5.3,4.3,9.6,9.6,9.6s9.6-4.3,9.6-9.6v-25.1c38.6-4.6,69.2-35.2,73.5-73.6h25.3c5.3,0,9.6-4.3,9.6-9.6S241.7,118.4,236.4,118.4z M137.6,191.7V160c0-5.3-4.3-9.6-9.6-9.6s-9.6,4.3-9.6,9.6v31.9c-28.2-4-50.6-26.2-54.7-54.2H96c5.3,0,9.6-4.3,9.6-9.6s-4.3-9.6-9.6-9.6H63.9c4.4-27.5,26.6-49.2,54.5-53.2V96c0,5.3,4.3,9.6,9.6,9.6s9.6-4.3,9.6-9.6V65.3c27.6,4.3,49.4,25.8,53.8,53.1H160c-5.3,0-9.6,4.3-9.6,9.6s4.3,9.6,9.6,9.6h31.7C187.6,165.4,165.6,187.4,137.6,191.7z"/></g></g><g></g><g></g><g></g><g></g><g></g><g></g><g></g><g></g><g></g><g></g><g></g><g></g><g></g><g></g><g></g></g></g>
</svg>